<svg xmlns="http://www.w3.org/2000/svg" viewBox="0 0 96 96">
  <defs>
    <linearGradient id="nxg" x1="0" y1="0" x2="1" y2="1">
      <stop offset="0" stop-color="#3D82F0"/>
      <stop offset="1" stop-color="#1B3A6B"/>
    </linearGradient>
  </defs>
  <rect width="96" height="96" rx="20" fill="url(#nxg)"/>
  <g transform="translate(9.6 9.6) scale(0.8)">
    <g stroke="#ffffff" stroke-width="9" stroke-linecap="round" fill="none">
      <line x1="26" y1="40" x2="26" y2="56"/>
      <line x1="30" y1="40" x2="66" y2="58"/>
      <line x1="70" y1="40" x2="70" y2="56"/>
    </g>
    <g fill="#ffffff">
      <circle cx="26" cy="22" r="8"/><path d="M14.5 40 a11.5 9 0 0 1 23 0 Z"/>
      <circle cx="26" cy="62" r="8"/><path d="M14.5 80 a11.5 9 0 0 1 23 0 Z"/>
      <circle cx="70" cy="22" r="8"/><path d="M58.5 40 a11.5 9 0 0 1 23 0 Z"/>
      <circle cx="70" cy="62" r="8"/><path d="M58.5 80 a11.5 9 0 0 1 23 0 Z"/>
    </g>
  </g>
</svg>
